<?xml version="1.0" standalone="no"?>
<!DOCTYPE svg PUBLIC "-//W3C//DTD SVG 20010904//EN"
 "http://www.w3.org/TR/2001/REC-SVG-20010904/DTD/svg10.dtd">
<svg version="1.0" xmlns="http://www.w3.org/2000/svg"
 width="900.000000pt" height="600.000000pt" viewBox="0 0 900.000000 600.000000"
 preserveAspectRatio="xMidYMid meet">

<g transform="translate(0.000000,600.000000) scale(0.100000,-0.100000)"
fill="#000000" stroke="none">
<path d="M5112 4750 c-167 -44 -320 -155 -376 -274 -104 -219 -22 -470 261
-807 113 -133 452 -488 605 -632 l128 -120 52 46 c86 73 559 553 658 667 116
133 250 333 289 431 108 271 17 508 -242 633 -204 99 -378 96 -542 -9 -51 -33
-157 -138 -190 -188 -10 -15 -21 -26 -25 -25 -4 2 -31 32 -59 67 -157 196
-344 267 -559 211z"/>
<path d="M3575 3233 c-71 -11 -365 -93 -1515 -421 -405 -116 -415 -119 -412
-142 1 -14 55 -202 118 -420 64 -217 143 -487 176 -600 33 -113 61 -206 62
-207 1 -2 263 71 581 162 l578 165 176 -109 c97 -59 349 -215 561 -346 212
-131 414 -250 450 -264 58 -23 79 -25 200 -25 133 -1 137 0 320 52 102 30 581
166 1065 304 1187 337 1212 344 1260 372 50 30 107 91 135 146 129 254 -16
543 -281 558 -66 4 -94 -1 -220 -36 -418 -118 -703 -198 -869 -244 -102 -29
-186 -52 -187 -53 -1 0 2 -27 6 -60 25 -177 -69 -371 -225 -465 -67 -40 -166
-69 -242 -69 -119 -2 -168 19 -524 217 -184 103 -345 194 -358 202 l-22 16 26
53 c19 37 32 51 42 47 8 -3 168 -91 356 -196 188 -105 360 -195 382 -201 59
-16 167 -5 231 25 183 83 260 329 154 489 -34 52 -57 67 -309 207 -102 57
-363 202 -580 323 -990 552 -913 514 -1040 521 -36 2 -78 2 -95 -1z"/>
</g>
</svg>
