<?xml version="1.0" standalone="no"?>
<!DOCTYPE svg PUBLIC "-//W3C//DTD SVG 20010904//EN"
 "http://www.w3.org/TR/2001/REC-SVG-20010904/DTD/svg10.dtd">
<svg version="1.0" xmlns="http://www.w3.org/2000/svg"
 width="300.000000pt" height="214.000000pt" viewBox="0 0 300.000000 214.000000"
 preserveAspectRatio="xMidYMid meet">
<metadata>
Created by potrace 1.10, written by Peter Selinger 2001-2011
</metadata>
<g transform="translate(0.000000,214.000000) scale(0.100000,-0.100000)"
fill="#000000" stroke="none">
<path d="M2508 2021 c-18 -15 -27 -36 -37 -88 -11 -64 -44 -146 -75 -186 -13
-16 -16 -16 -59 8 -102 57 -200 41 -282 -46 l-47 -50 -20 27 c-85 107 -187
130 -307 70 l-50 -26 -30 43 c-28 41 -61 141 -61 185 0 29 -38 72 -65 72 -34
0 -82 -45 -111 -103 -31 -60 -25 -83 32 -112 78 -40 114 -68 144 -113 26 -39
30 -55 30 -110 0 -98 45 -177 190 -337 84 -93 240 -245 251 -245 13 0 164 146
256 249 150 165 186 233 182 339 -4 101 34 148 190 234 36 20 40 47 15 99 -21
43 -52 77 -86 95 -34 17 -31 18 -60 -5z m-986 -122 c18 -82 70 -183 102 -195
8 -3 37 6 65 20 106 54 174 44 263 -42 l59 -56 52 51 c67 65 87 75 157 75 41
0 71 -7 107 -26 50 -25 51 -25 75 -7 36 29 76 110 93 191 18 85 20 90 45 90
30 0 75 -45 90 -91 16 -47 21 -41 -79 -98 -37 -21 -72 -51 -92 -79 -30 -41
-34 -55 -39 -136 -7 -98 -18 -127 -80 -211 -44 -60 -285 -312 -312 -326 -25
-13 -86 39 -235 200 -155 169 -185 220 -193 328 -6 74 -11 89 -43 136 -32 47
-103 102 -159 122 -27 10 -29 34 -8 76 24 46 76 82 99 69 9 -5 22 -42 33 -91z"/>
<path d="M1020 1118 c-19 -5 -192 -54 -384 -109 -192 -54 -355 -99 -362 -99
-18 0 -19 3 16 -114 35 -116 57 -192 96 -326 15 -52 28 -96 29 -97 1 -1 112
29 248 68 l247 71 228 -140 c125 -77 245 -149 268 -160 60 -30 140 -24 309 25
158 46 306 88 380 108 347 95 538 155 561 176 37 35 55 73 56 124 1 88 -61
155 -144 155 -30 0 -264 -61 -518 -135 -11 -4 -15 -20 -16 -58 -2 -60 -20
-101 -64 -145 -39 -39 -119 -66 -168 -57 -36 6 -161 69 -294 147 -62 37 -67
42 -56 62 6 11 12 23 14 25 2 2 73 -36 160 -85 128 -71 164 -87 199 -87 82 0
145 64 145 148 0 66 -21 85 -204 187 -94 53 -244 136 -332 186 -249 139 -255
142 -321 141 -32 0 -74 -5 -93 -11z m235 -68 c202 -108 651 -363 668 -377 21
-20 23 -83 3 -122 -25 -48 -110 -67 -166 -38 -14 8 -83 46 -154 85 -71 40
-133 72 -137 72 -17 0 -50 -55 -47 -79 3 -27 52 -60 248 -165 87 -47 101 -51
160 -51 73 1 116 19 162 69 40 42 65 93 73 147 l7 45 151 43 c84 24 190 54
237 67 118 34 142 31 198 -19 18 -16 22 -31 22 -75 0 -61 -21 -104 -58 -121
-13 -6 -157 -49 -320 -95 -164 -47 -362 -103 -442 -126 -80 -23 -170 -48 -200
-57 -192 -53 -183 -56 -491 133 -280 172 -251 163 -379 124 -140 -42 -352
-101 -355 -98 -3 3 -54 172 -110 366 -15 51 -25 96 -22 99 16 15 768 222 811
222 41 1 65 -8 141 -49z"/>
</g>
</svg>
