<?xml version="1.0" encoding="utf-8"?>
<svg version="1.0" width="700.000000pt" height="500.000000pt" viewBox="0 0 700.000000 500.000000" preserveAspectRatio="xMidYMid meet" xmlns="http://www.w3.org/2000/svg">
  <g transform="translate(0.000000,500.000000) scale(0.100000,-0.100000)" fill="#000000" stroke="none">
    <path d="M5860 4738 c-58 -40 -69 -66 -105 -238 -43 -211 -45 -215 -128 -343 l-70 -107 -31 21 c-52 35 -168 86 -225 99 -85 20 -217 15 -287 -11 -103 -38 -216 -130 -301 -244 l-22 -30 -21 25 c-12 14 -40 48 -63 75 -186 226 -448 264 -721 105 -37 -22 -71 -40 -75 -40 -10 0 -137 203 -150 240 -7 19 -27 109 -46 200 -36 172 -47 198 -105 238 -64 43 -133 22 -228 -71 -48 -47 -74 -84 -109 -156 -41 -85 -45 -98 -39 -145 7 -60 14 -67 141 -132 177 -92 234 -136 308 -240 62 -87 71 -116 72 -249 1 -82 7 -139 19 -180 41 -139 158 -323 331 -521 144 -166 655 -681 686 -692 8 -3 539 521 651 643 138 151 286 357 335 465 48 109 68 272 43 359 -15 55 37 162 129 265 33 36 132 101 246 160 127 65 134 72 141 132 6 47 2 60 -39 145 -35 72 -61 109 -109 156 -95 93 -164 114 -228 71z" style="fill: rgb(19, 232, 0);"/>
    <path d="M2485 2645 c-5 -2 -59 -17 -120 -34 -263 -72 -447 -124 -1050 -296 -352 -101 -655 -186 -672 -190 -18 -3 -35 -10 -38 -15 -3 -5 6 -44 19 -87 13 -43 43 -143 66 -223 23 -80 71 -242 105 -360 35 -118 87 -296 116 -395 29 -99 53 -181 54 -182 0 -1 261 72 579 163 l578 165 31 -19 c18 -11 100 -61 182 -112 83 -51 172 -106 200 -122 62 -38 444 -274 550 -341 218 -138 256 -152 430 -152 130 0 130 0 340 61 116 34 442 127 725 208 1312 373 1530 435 1559 451 122 62 213 236 197 375 -12 100 -43 176 -97 231 -63 65 -138 99 -232 106 -62 5 -89 1 -197 -30 -69 -20 -197 -56 -285 -80 -88 -25 -263 -75 -390 -110 -126 -36 -266 -75 -310 -87 -44 -12 -83 -24 -86 -26 -3 -2 -2 -27 4 -55 23 -119 -29 -277 -128 -387 -151 -166 -390 -198 -605 -80 -41 22 -104 57 -140 76 -36 20 -162 90 -280 157 -237 134 -230 127 -188 202 l23 40 70 -39 c39 -22 147 -83 240 -135 94 -52 213 -119 265 -149 122 -68 156 -82 222 -90 154 -18 306 78 361 226 57 156 12 301 -117 377 -34 20 -221 125 -416 233 -195 109 -409 228 -475 265 -66 38 -158 89 -205 115 -47 25 -193 107 -325 180 -132 74 -262 142 -290 152 -36 12 -80 17 -155 17 -58 0 -109 -2 -115 -4z"/>
  </g>
</svg>